<svg id="Layer_1" data-name="Layer 1" xmlns="http://www.w3.org/2000/svg" viewBox="0 0 511 512"><defs><style>.cls-1{fill:#426175;}.cls-2{fill:#2c4456;}.cls-3{fill:#f2f2f2;}.cls-4{fill:#cdd6df;}.cls-5{fill:#88dbfd;}.cls-6{fill:#5abfe9;}.cls-7{fill:#fd715c;}</style></defs>
<path class="cls-1" d="M417.43,460.49H160A24.46,24.46,0,0,1,135.51,436V32A24.46,24.46,0,0,1,160,7.5H417.43A24.46,24.46,0,0,1,441.89,32V436A24.46,24.46,0,0,1,417.43,460.49Z"/>
<path class="cls-2" d="M417.43,7.5H369.18A24.46,24.46,0,0,1,393.64,32V436a24.46,24.46,0,0,1-24.46,24.46h48.25A24.46,24.46,0,0,0,441.89,436V32A24.46,24.46,0,0,0,417.43,7.5Z"/>
<path class="cls-3" d="M135.51,59.28H441.89V409.49H135.51Z"/>
<path class="cls-4" d="M393.64,59.28h48.25V409.49H393.64Z"/>
<path class="cls-5" d="M264.38,323.48H34.32A24.32,24.32,0,0,1,10,299.16v-160a24.32,24.32,0,0,1,24.32-24.32H264.38a24.32,24.32,0,0,1,24.32,24.32v160A24.32,24.32,0,0,1,264.38,323.48Z"/>
<path class="cls-6" d="M264.38,114.81H235V323.48h29.34a24.32,24.32,0,0,0,24.32-24.32v-160A24.32,24.32,0,0,0,264.38,114.81Z"/>

<path class="path-1" d="M57,223.2l36.92-24.15a3.65,3.65,0,0,1,2.1-.56,7.4,7.4,0,0,1,6.74,7,4.91,4.91,0,0,1-2.1,4.07L71.18,229l29.48,19.37a4.57,4.57,0,0,1,2.1,4.07A7.26,7.26,0,0,1,96,259.27a3.65,3.65,0,0,1-2.1-.56L57,234.57A7.06,7.06,0,0,1,53.91,229,7.29,7.29,0,0,1,57,223.2Z"/>
<path d="M180.8,165.09a4.11,4.11,0,0,1-.56,2.24L128.72,270.08a5.07,5.07,0,0,1-4.63,2.67,5.43,5.43,0,0,1-5.47-5.2,5.62,5.62,0,0,1,.42-2.1l51.65-103.17a4.29,4.29,0,0,1,4.21-2.53C177.71,159.75,180.8,161.86,180.8,165.09Z"/>
<path d="M242.28,234.57l-36.92,24.14a3.22,3.22,0,0,1-2,.56,7.15,7.15,0,0,1-6.73-6.88,4.81,4.81,0,0,1,2-4.07L228.24,229l-29.62-19.36a5.22,5.22,0,0,1-2-4.07,7.27,7.27,0,0,1,6.73-7,3.22,3.22,0,0,1,2,.56l36.92,24.14a7.29,7.29,0,0,1,3.08,5.76A6.68,6.68,0,0,1,242.28,234.57Z"/>

<path class="cls-7" d="M400.38,504.5A13.43,13.43,0,0,1,387,491.08V486.8a4.63,4.63,0,0,0-3.31-4.48,77.35,77.35,0,0,1-15.92-6.52,4.43,4.43,0,0,0-2.14-.55,4.7,4.7,0,0,0-3.32,1.39l-3,3a13.41,13.41,0,0,1-19,0L333,472.32a13.41,13.41,0,0,1,0-19l3-3a4.66,4.66,0,0,0,.83-5.48A77,77,0,0,1,330.31,429a4.64,4.64,0,0,0-4.48-3.31h-4.28a13.43,13.43,0,0,1-13.42-13.42V401.94a13.43,13.43,0,0,1,13.42-13.42h4.64a4.69,4.69,0,0,0,4.5-3.26,76.79,76.79,0,0,1,6.58-15.42,4.64,4.64,0,0,0-.79-5.54L333,360.84a13.42,13.42,0,0,1,0-19l7.29-7.29a13.42,13.42,0,0,1,19,0l3.85,3.86a4.74,4.74,0,0,0,3.31,1.37,4.51,4.51,0,0,0,2.13-.53,77.8,77.8,0,0,1,15.05-6.06,4.63,4.63,0,0,0,3.33-4.47v-5.63a13.44,13.44,0,0,1,13.42-13.43H410.7a13.43,13.43,0,0,1,13.41,13.43v6a4.66,4.66,0,0,0,3.25,4.45A77.5,77.5,0,0,1,442,339.7a4.61,4.61,0,0,0,2.2.56,4.66,4.66,0,0,0,3.31-1.37l4.32-4.32a13.42,13.42,0,0,1,19,0l7.29,7.29a13.44,13.44,0,0,1,0,19l-4.32,4.32a4.67,4.67,0,0,0-.81,5.51,77.5,77.5,0,0,1,6.12,14.6,4.66,4.66,0,0,0,4.45,3.25h6A13.43,13.43,0,0,1,503,401.94v10.31a13.43,13.43,0,0,1-13.42,13.42h-5.64a4.65,4.65,0,0,0-4.47,3.33,77.17,77.17,0,0,1-6.06,15.05,4.66,4.66,0,0,0,.85,5.44l3.85,3.86a13.41,13.41,0,0,1,0,19l-7.29,7.29a13.4,13.4,0,0,1-19,0l-3.45-3.45a4.67,4.67,0,0,0-3.32-1.38,4.58,4.58,0,0,0-2.23.58,77,77,0,0,1-15.41,6.58,4.71,4.71,0,0,0-3.27,4.5v4.64A13.43,13.43,0,0,1,410.7,504.5Zm5.16-128.95a31.55,31.55,0,1,0,31.54,31.54A31.57,31.57,0,0,0,405.54,375.55Z"/>
<path d="M296.2,299.16v-160a31.85,31.85,0,0,0-31.82-31.82H34.32A31.85,31.85,0,0,0,2.5,139.13v160A31.85,31.85,0,0,0,34.32,331H264.38A31.85,31.85,0,0,0,296.2,299.16Zm-278.7,0v-160a16.84,16.84,0,0,1,16.82-16.82H264.38a16.84,16.84,0,0,1,16.82,16.82v160A16.83,16.83,0,0,1,264.38,316H34.32A16.84,16.84,0,0,1,17.5,299.16Z"/>
<path d="M405.54,368.05a39.09,39.09,0,0,0-39,39c0,.56,0,1.12,0,1.67,0,.24,0,.48,0,.73a7.5,7.5,0,0,0,.23,1.85,39,39,0,1,0,38.81-43.29Zm0,15A24.1,24.1,0,0,1,429,402H382A24.09,24.09,0,0,1,405.54,383.05Zm0,48.09A24.09,24.09,0,0,1,383.63,417h43.82A24.09,24.09,0,0,1,405.54,431.14Z"/>
<path d="M489.52,381h-3.95a85.13,85.13,0,0,0-5.05-12l2.84-2.84a20.93,20.93,0,0,0,0-29.58l-7.29-7.29a20.93,20.93,0,0,0-26.68-2.43V32a32,32,0,0,0-32-32H160a32,32,0,0,0-32,32V84.81a7.5,7.5,0,0,0,15,0v-18H434.39V328c-.92-.34-1.84-.67-2.78-1v-3.95a20.94,20.94,0,0,0-20.91-20.92H400.38a20.94,20.94,0,0,0-20.92,20.92v3.52a85.21,85.21,0,0,0-12.48,5l-2.39-2.39a20.92,20.92,0,0,0-29.59,0l-7.29,7.28a20.94,20.94,0,0,0,0,29.59l2,2A83.37,83.37,0,0,0,324.17,381h-2.62a20.94,20.94,0,0,0-20.92,20.92V402H143V353.48a7.5,7.5,0,0,0-15,0V436a32,32,0,0,0,32,32H322.22a20.83,20.83,0,0,0,5.49,9.63l7.29,7.3a20.92,20.92,0,0,0,29.59,0l1.5-1.51a84,84,0,0,0,13.37,5.48v2.19A21,21,0,0,0,400.38,512H410.7a20.94,20.94,0,0,0,20.91-20.92v-2.62a85.42,85.42,0,0,0,12.92-5.5l2,2a20.91,20.91,0,0,0,29.58,0l7.29-7.29a20.92,20.92,0,0,0,0-29.59L481,445.65a85.21,85.21,0,0,0,5-12.48h3.52a21,21,0,0,0,20.93-20.92V401.94A21,21,0,0,0,489.52,381ZM143,51.78V32a17,17,0,0,1,17-17H417.43a17,17,0,0,1,17,17V51.78ZM143,436V417H301.18a21,21,0,0,0,20.37,16.18h2.19a84.94,84.94,0,0,0,5.48,13.37l-1.51,1.5A20.92,20.92,0,0,0,324,453H160A17,17,0,0,1,143,436Zm352.44-23.78a5.93,5.93,0,0,1-5.93,5.92h-5.63A12.18,12.18,0,0,0,472.2,427a69.73,69.73,0,0,1-5.47,13.59,12.24,12.24,0,0,0,2.17,14.26l3.85,3.85a5.91,5.91,0,0,1,0,8.37l-7.29,7.29a5.91,5.91,0,0,1-8.38,0l-3.46-3.46a12.15,12.15,0,0,0-14.52-2,70,70,0,0,1-13.91,5.95,12.24,12.24,0,0,0-8.59,11.67v4.64a5.92,5.92,0,0,1-5.92,5.92H400.38a5.93,5.93,0,0,1-5.92-5.92V486.8a12.16,12.16,0,0,0-8.76-11.69,70.16,70.16,0,0,1-14.37-5.89,12,12,0,0,0-5.74-1.46,12.26,12.26,0,0,0-8.63,3.58l-3,3a5.91,5.91,0,0,1-8.37,0l-7.29-7.3a5.76,5.76,0,0,1-1.73-4.18,6.34,6.34,0,0,1,0-.76,5.58,5.58,0,0,0,.1-.59,5.82,5.82,0,0,1,1.59-2.84l3-3a12.19,12.19,0,0,0,2.11-14.37,69.49,69.49,0,0,1-5.88-14.36,12.19,12.19,0,0,0-11.71-8.77h-4.27a5.93,5.93,0,0,1-5.92-5.92V401.94a5.93,5.93,0,0,1,5.92-5.92h4.64a12.25,12.25,0,0,0,11.68-8.59,70.14,70.14,0,0,1,5.93-13.91,12.17,12.17,0,0,0-2-14.52l-3.46-3.46a5.93,5.93,0,0,1,0-8.37l7.29-7.29a5.9,5.9,0,0,1,8.37,0l3.86,3.85a12.27,12.27,0,0,0,8.61,3.57,11.9,11.9,0,0,0,5.64-1.4,70.11,70.11,0,0,1,13.59-5.47,12.17,12.17,0,0,0,8.78-11.69v-5.63a5.93,5.93,0,0,1,5.92-5.92H410.7a5.92,5.92,0,0,1,5.91,5.92v6a12.21,12.21,0,0,0,8.58,11.63,69.63,69.63,0,0,1,12.95,5.41l.39.21a12.14,12.14,0,0,0,14.24-2.18l4.32-4.32a5.91,5.91,0,0,1,8.38,0l7.29,7.29a6,6,0,0,1,0,8.37l-4.32,4.32a12.21,12.21,0,0,0-2.09,14.41,70.13,70.13,0,0,1,5.52,13.18A12.2,12.2,0,0,0,483.5,396h6a5.93,5.93,0,0,1,5.93,5.92Z"/></svg>

